<svg width="42" height="42" viewBox="0 0 42 42" fill="none" xmlns="http://www.w3.org/2000/svg">
<circle cx="21" cy="21" r="20.5" fill="#FCF7F7" stroke="#606062"/>
<path d="M29.2031 30.7188H12.7969C11.4377 30.7188 10.3359 31.8205 10.3359 33.1797C10.3359 33.6327 10.7032 34 11.1562 34H30.8438C31.2968 34 31.6641 33.6327 31.6641 33.1797C31.6641 31.8205 30.5623 30.7188 29.2031 30.7188Z" fill="#606062"/>
<path d="M27.5625 6H14.4375C13.0805 6 11.9766 7.15861 11.9766 8.51562V20.8203C15.5778 20.8203 26.3935 20.8203 30.0234 20.8203V8.51562C30.0234 7.15861 28.9195 6 27.5625 6ZM21 19.1797H16.0781C15.6247 19.1797 15.2578 18.8128 15.2578 18.3594C15.2578 17.906 15.6247 17.5391 16.0781 17.5391H21C21.4534 17.5391 21.8203 17.906 21.8203 18.3594C21.8203 18.8128 21.4534 19.1797 21 19.1797ZM21.8203 15.0781C21.8203 15.5315 21.4534 15.8984 21 15.8984H16.0781C15.6247 15.8984 15.2578 15.5315 15.2578 15.0781V10.1562C15.2578 9.70284 15.6247 9.33594 16.0781 9.33594H21C21.4534 9.33594 21.8203 9.70284 21.8203 10.1562V15.0781ZM25.9219 19.1797C25.4688 19.1797 25.1016 18.8124 25.1016 18.3594C25.1016 17.9063 25.4688 17.5391 25.9219 17.5391C26.3749 17.5391 26.7422 17.9063 26.7422 18.3594C26.7422 18.8124 26.3749 19.1797 25.9219 19.1797ZM25.9219 14.2578H24.2812C23.8278 14.2578 23.4609 13.8909 23.4609 13.4375C23.4609 12.9841 23.8278 12.6172 24.2812 12.6172H25.9219C26.3753 12.6172 26.7422 12.9841 26.7422 13.4375C26.7422 13.8909 26.3753 14.2578 25.9219 14.2578ZM25.9219 10.9766H24.2812C23.8278 10.9766 23.4609 10.6097 23.4609 10.1562C23.4609 9.70284 23.8278 9.33594 24.2812 9.33594H25.9219C26.3753 9.33594 26.7422 9.70284 26.7422 10.1562C26.7422 10.6097 26.3753 10.9766 25.9219 10.9766Z" fill="#606062"/>
<path d="M11.9766 22.4609V29.0781H30.0234V22.4609C26.3876 22.4609 15.5769 22.4609 11.9766 22.4609Z" fill="#606062"/>
</svg>
