<svg width="42" height="42" viewBox="0 0 42 42" fill="none" xmlns="http://www.w3.org/2000/svg">
<circle cx="21" cy="21" r="20.5" fill="#FCF7F7" stroke="#606062"/>
<path d="M10.091 17.4545H11.1819V24.7271H13.3637V17.4545H17.0001V24.7271H19.1819V17.4545H22.8182V24.7271H25V17.4545H28.6364V24.7271H30.8182V17.4545H31.9091C32.3897 17.4545 32.8139 17.1398 32.9531 16.6797C33.0924 16.2196 32.9142 15.7225 32.5142 15.4558L21.6051 8.18316C21.2387 7.93895 20.7613 7.93895 20.3949 8.18316L9.48586 15.4558C9.08586 15.7225 8.90761 16.2196 9.04688 16.6797C9.18622 17.1398 9.61037 17.4545 10.091 17.4545Z" fill="#606062"/>
<path d="M31.909 26.9102H30.818H28.6362H24.9999H22.8181H19.1818H17H13.3636H11.1818H10.0909C9.48843 26.9102 9 27.3986 9 28.0011V30.9101C9 31.5126 9.48843 32.001 10.0909 32.001H31.909C32.5114 32.001 32.9999 31.5126 32.9999 30.9101V28.0011C32.9999 27.3986 32.5114 26.9102 31.909 26.9102Z" fill="#606062"/>
</svg>
