<svg width="20" height="20" viewBox="0 0 20 20" fill="none" xmlns="http://www.w3.org/2000/svg">
<path d="M15.8334 3.33268H14.1667V2.49935C14.1667 2.27834 14.079 2.06637 13.9227 1.91009C13.7664 1.75381 13.5544 1.66602 13.3334 1.66602C13.1124 1.66602 12.9004 1.75381 12.7442 1.91009C12.5879 2.06637 12.5001 2.27834 12.5001 2.49935V3.33268H7.50008V2.49935C7.50008 2.27834 7.41228 2.06637 7.256 1.91009C7.09972 1.75381 6.88776 1.66602 6.66675 1.66602C6.44573 1.66602 6.23377 1.75381 6.07749 1.91009C5.92121 2.06637 5.83342 2.27834 5.83342 2.49935V3.33268H4.16675C3.50371 3.33268 2.86782 3.59607 2.39898 4.06492C1.93014 4.53376 1.66675 5.16964 1.66675 5.83268V15.8327C1.66675 16.4957 1.93014 17.1316 2.39898 17.6005C2.86782 18.0693 3.50371 18.3327 4.16675 18.3327H15.8334C16.4965 18.3327 17.1323 18.0693 17.6012 17.6005C18.07 17.1316 18.3334 16.4957 18.3334 15.8327V5.83268C18.3334 5.16964 18.07 4.53376 17.6012 4.06492C17.1323 3.59607 16.4965 3.33268 15.8334 3.33268ZM16.6667 15.8327C16.6667 16.0537 16.579 16.2657 16.4227 16.4219C16.2664 16.5782 16.0544 16.666 15.8334 16.666H4.16675C3.94573 16.666 3.73377 16.5782 3.57749 16.4219C3.42121 16.2657 3.33341 16.0537 3.33341 15.8327V9.99935H16.6667V15.8327ZM16.6667 8.33268H3.33341V5.83268C3.33341 5.61167 3.42121 5.39971 3.57749 5.24343C3.73377 5.08715 3.94573 4.99935 4.16675 4.99935H5.83342V5.83268C5.83342 6.0537 5.92121 6.26566 6.07749 6.42194C6.23377 6.57822 6.44573 6.66602 6.66675 6.66602C6.88776 6.66602 7.09972 6.57822 7.256 6.42194C7.41228 6.26566 7.50008 6.0537 7.50008 5.83268V4.99935H12.5001V5.83268C12.5001 6.0537 12.5879 6.26566 12.7442 6.42194C12.9004 6.57822 13.1124 6.66602 13.3334 6.66602C13.5544 6.66602 13.7664 6.57822 13.9227 6.42194C14.079 6.26566 14.1667 6.0537 14.1667 5.83268V4.99935H15.8334C16.0544 4.99935 16.2664 5.08715 16.4227 5.24343C16.579 5.39971 16.6667 5.61167 16.6667 5.83268V8.33268Z" fill="#606062"/>
</svg>
