<svg width="20" height="20" viewBox="0 0 20 20" fill="none" xmlns="http://www.w3.org/2000/svg">
<path d="M12.7421 9.9999L19.4321 3.31006C20.1893 2.5528 20.1893 1.32524 19.4321 0.567983C18.675 -0.189276 17.4473 -0.189121 16.69 0.567983L10.0001 7.25798L3.31002 0.567828C2.55277 -0.189276 1.32523 -0.189276 0.567976 0.567828C-0.189119 1.32509 -0.189119 2.55265 0.567976 3.3099L7.2579 9.9999L0.567821 16.6901C-0.189274 17.4473 -0.189274 18.6749 0.567821 19.4323C0.946446 19.8108 1.44264 20 1.93884 20C2.43504 20 2.93124 19.8106 3.30987 19.4323L9.99994 12.742L16.69 19.4323C17.0686 19.8106 17.5648 20 18.061 20C18.5572 20 19.0534 19.8106 19.4321 19.4323C20.1893 18.6749 20.1893 17.4473 19.4321 16.6901L12.7421 9.9999Z" fill="#606062"/>
</svg>
