<svg width="11" height="11" viewBox="0 0 11 11" fill="none" xmlns="http://www.w3.org/2000/svg">
<path d="M7.00818 5.49995L10.6876 1.82053C11.1041 1.40404 11.1041 0.728883 10.6876 0.312391C10.2712 -0.104102 9.596 -0.104016 9.17951 0.312391L5.50005 3.99189L1.82051 0.312305C1.40402 -0.104102 0.728874 -0.104102 0.312387 0.312305C-0.104015 0.728798 -0.104015 1.40396 0.312387 1.82045L3.99184 5.49995L0.312302 9.17953C-0.104101 9.59602 -0.104101 10.2712 0.312302 10.6878C0.520545 10.8959 0.793454 11 1.06636 11C1.33927 11 1.61218 10.8958 1.82043 10.6878L5.49997 7.00809L9.17951 10.6878C9.38775 10.8958 9.66066 11 9.93357 11C10.2065 11 10.4794 10.8958 10.6876 10.6878C11.1041 10.2712 11.1041 9.59602 10.6876 9.17953L7.00818 5.49995Z" fill="white"/>
</svg>
