<svg width="32" height="32" viewBox="0 0 32 32" fill="none" xmlns="http://www.w3.org/2000/svg">
<rect width="32" height="32" rx="16" fill="#DB353A"/>
<path d="M16 10C16.5523 10 17 10.4477 17 11V17C17 17.5523 16.5523 18 16 18C15.4477 18 15 17.5523 15 17V11C15 10.4477 15.4477 10 16 10Z" fill="#FBF3D0"/>
<path d="M16 20C15.4477 20 15 20.4477 15 21C15 21.5523 15.4477 22 16 22C16.5523 22 17 21.5523 17 21C17 20.4477 16.5523 20 16 20Z" fill="#FBF3D0"/>
<path fill-rule="evenodd" clip-rule="evenodd" d="M16 6C10.4772 6 6 10.4772 6 16C6 21.5228 10.4772 26 16 26C21.5228 26 26 21.5228 26 16C26 10.4772 21.5228 6 16 6ZM8 16C8 20.4183 11.5817 24 16 24C20.4183 24 24 20.4183 24 16C24 11.5817 20.4183 8 16 8C11.5817 8 8 11.5817 8 16Z" fill="#FBF3D0"/>
</svg>
