<svg width="20" height="20" viewBox="0 0 20 20" fill="none" xmlns="http://www.w3.org/2000/svg">
<path d="M6.13002 6.46763C6.13002 6.36942 6.21038 6.28906 6.30859 6.28906L7.78181 6.29576L10.0006 8.94085L12.2171 6.29799L13.6925 6.29129C13.7907 6.29129 13.8711 6.36942 13.8711 6.46987C13.8711 6.51228 13.8555 6.55246 13.8287 6.58594L10.9247 10.0458L13.8287 13.5033C13.8557 13.5361 13.8706 13.577 13.8711 13.6194C13.8711 13.7176 13.7907 13.798 13.6925 13.798L12.2171 13.7913L10.0006 11.1462L7.78404 13.7891L6.31083 13.7958C6.21261 13.7958 6.13225 13.7176 6.13225 13.6172C6.13225 13.5748 6.14788 13.5346 6.17466 13.5011L9.07422 10.0435L6.1702 6.58371C6.14342 6.55246 6.13002 6.51004 6.13002 6.46763Z" fill="black"/>
<path d="M10 0C15.5223 0 20 4.47768 20 10C20 15.5223 15.5223 20 10 20C4.47768 20 0 15.5223 0 10C0 4.47768 4.47768 0 10 0ZM10 18.3036C14.5848 18.3036 18.3036 14.5848 18.3036 10C18.3036 5.41518 14.5848 1.69643 10 1.69643C5.41518 1.69643 1.69643 5.41518 1.69643 10C1.69643 14.5848 5.41518 18.3036 10 18.3036Z" fill="black"/>
</svg>
