<svg width="24" height="24" viewBox="0 0 24 24" fill="none" xmlns="http://www.w3.org/2000/svg">
<path d="M22.2212 0H8.95488C8.00938 0 7.24023 0.7692 7.24023 1.71464V5.73903H8.80545V1.71464C8.80545 1.63226 8.8725 1.56522 8.95488 1.56522H22.2212C22.3036 1.56522 22.3707 1.63226 22.3707 1.71464V14.981C22.3707 15.0634 22.3036 15.1305 22.2212 15.1305H18.3223V16.6957H22.2212C23.1667 16.6957 23.9359 15.9265 23.9359 14.981V1.71464C23.9358 0.7692 23.1667 0 22.2212 0Z" fill="#606062"/>
<path d="M15.0435 7.30469H1.7772C0.8317 7.30469 0.0625 8.07389 0.0625 9.01938V22.2857C0.0625522 23.2312 0.8317 24.0004 1.7772 24.0004H15.0436C15.9891 24.0004 16.7583 23.2312 16.7583 22.2858V9.01938C16.7583 8.07389 15.989 7.30469 15.0435 7.30469ZM15.0436 22.4352H1.7772C1.69476 22.4352 1.62772 22.3682 1.62772 22.2858V9.01938C1.62772 8.93695 1.69476 8.8699 1.7772 8.8699H15.0436C15.126 8.8699 15.193 8.93695 15.193 9.01938V22.2858H15.1931C15.1931 22.3682 15.126 22.4352 15.0436 22.4352Z" fill="#606062"/>
</svg>
