<svg width="30" height="30" viewBox="0 0 30 30" fill="none" xmlns="http://www.w3.org/2000/svg">
<circle cx="15" cy="15" r="15" fill="#181717"/>
<path d="M15.1244 14.6C16.2977 14.664 17.1884 14.984 17.7964 15.56C18.415 16.1253 18.7244 16.8667 18.7244 17.784C18.7244 18.424 18.5697 18.9947 18.2604 19.496C17.951 19.9867 17.4924 20.376 16.8844 20.664C16.2764 20.952 15.535 21.096 14.6604 21.096C13.8497 21.096 13.0817 20.968 12.3564 20.712C11.6417 20.4453 11.0657 20.0933 10.6284 19.656L11.1884 18.744C11.5617 19.128 12.0577 19.4427 12.6764 19.688C13.295 19.9227 13.9564 20.04 14.6604 20.04C15.5777 20.04 16.287 19.8427 16.7884 19.448C17.2897 19.0427 17.5404 18.488 17.5404 17.784C17.5404 17.0907 17.2897 16.5467 16.7884 16.152C16.287 15.7573 15.5297 15.56 14.5164 15.56H13.7164V14.712L16.8204 10.824H11.0924V9.8H18.2924V10.616L15.1244 14.6Z" fill="white"/>
</svg>
