<svg width="19" height="20" viewBox="0 0 19 20" fill="none" xmlns="http://www.w3.org/2000/svg">
<ellipse cx="9.5" cy="10" rx="9.5" ry="10" fill="#DB353A"/>
<path d="M13.8077 12.579L11.1804 9.81296L13.6184 7.24664C14.0797 6.76175 14.0797 5.97524 13.6184 5.48993C13.1576 5.00483 12.4104 5.00504 11.95 5.48993L9.51155 8.05626L6.95394 5.36383C6.4929 4.87872 5.74572 4.87872 5.28507 5.36383C4.82443 5.84914 4.82443 6.63522 5.28507 7.12053L7.84288 9.81296L5.09578 12.7044C4.63474 13.19 4.63474 13.976 5.09578 14.4613C5.55663 14.9462 6.30361 14.9462 6.76425 14.4613L9.51155 11.5697L12.1392 14.3357C12.6001 14.8208 13.3471 14.8208 13.8077 14.3357C14.269 13.8501 14.2688 13.0636 13.8077 12.579Z" fill="white"/>
</svg>
