<svg width="63" height="63" viewBox="0 0 63 63" fill="none" xmlns="http://www.w3.org/2000/svg">
<g filter="url(#filter0_d_1_12)">
<circle cx="29.5" cy="26.5" r="21.5" fill="white"/>
<circle cx="29.5" cy="26.5" r="21" stroke="#FCF7F7"/>
</g>
<path d="M38.2591 20.1291L36.0897 19.0988L36.2022 18.862C36.6944 17.8256 36.2517 16.582 35.2153 16.0897L33.3468 15.2023C32.8448 14.9638 32.2801 14.9353 31.7563 15.1216C31.2327 15.3079 30.813 15.6871 30.5746 16.1892L30.4621 16.426L28.2927 15.3956C27.1577 14.8566 25.7954 15.3415 25.2562 16.4765L24.7008 17.6457C24.6127 17.8313 24.6019 18.0444 24.6708 18.2379C24.7397 18.4314 24.8826 18.5897 25.0682 18.6778L30.8173 21.4084H23.2121C22.9954 21.4084 22.7888 21.4991 22.6421 21.6585C22.4954 21.818 22.4222 22.0315 22.4402 22.2474L23.4583 34.4635C23.5768 35.8859 24.7877 37 26.215 37H31.9115C33.3387 37 34.5496 35.8859 34.6681 34.4635L35.5681 23.6647L37.7529 24.7024C37.8602 24.7534 37.9733 24.7775 38.0847 24.7775C38.3744 24.7775 38.6523 24.6142 38.7849 24.335L39.3402 23.1659C39.8791 22.0305 39.3942 20.6683 38.2591 20.1291ZM31.974 16.8538C32.0349 16.7256 32.1421 16.6287 32.2758 16.581C32.4097 16.5335 32.5539 16.5407 32.6821 16.6017L34.5506 17.489C34.8153 17.6148 34.9284 17.9326 34.8027 18.1973L34.6902 18.4341L31.8615 17.0907L31.974 16.8538ZM33.1241 34.3348C33.072 34.9604 32.5393 35.4506 31.9114 35.4506H26.2149C25.587 35.4506 25.0543 34.9604 25.0021 34.3348L24.054 22.9575H34.0723L33.1241 34.3348ZM37.9406 22.501L37.7177 22.9705L26.4326 17.6106L26.6556 17.1411C26.8283 16.7774 27.2647 16.6222 27.6281 16.7949L37.5944 21.5284C37.958 21.7012 38.1133 22.1375 37.9406 22.501Z" fill="#606062"/>
<defs>
<filter id="filter0_d_1_12" x="0" y="0" width="63" height="63" filterUnits="userSpaceOnUse" color-interpolation-filters="sRGB">
<feFlood flood-opacity="0" result="BackgroundImageFix"/>
<feColorMatrix in="SourceAlpha" type="matrix" values="0 0 0 0 0 0 0 0 0 0 0 0 0 0 0 0 0 0 127 0" result="hardAlpha"/>
<feOffset dx="2" dy="5"/>
<feGaussianBlur stdDeviation="5"/>
<feColorMatrix type="matrix" values="0 0 0 0 0.909804 0 0 0 0 0.313726 0 0 0 0 0.313726 0 0 0 0.2 0"/>
<feBlend mode="normal" in2="BackgroundImageFix" result="effect1_dropShadow_1_12"/>
<feBlend mode="normal" in="SourceGraphic" in2="effect1_dropShadow_1_12" result="shape"/>
</filter>
</defs>
</svg>
