<svg width="40" height="40" viewBox="0 0 40 40" fill="none" xmlns="http://www.w3.org/2000/svg">
<rect x="4" y="4" width="32" height="32" rx="16" fill="#181717"/>
<path d="M20 14C20.5523 14 21 14.4477 21 15V21C21 21.5523 20.5523 22 20 22C19.4477 22 19 21.5523 19 21V15C19 14.4477 19.4477 14 20 14Z" fill="white"/>
<path d="M20 24C19.4477 24 19 24.4477 19 25C19 25.5523 19.4477 26 20 26C20.5523 26 21 25.5523 21 25C21 24.4477 20.5523 24 20 24Z" fill="white"/>
<path fill-rule="evenodd" clip-rule="evenodd" d="M20 10C14.4772 10 10 14.4772 10 20C10 25.5228 14.4772 30 20 30C25.5228 30 30 25.5228 30 20C30 14.4772 25.5228 10 20 10ZM12 20C12 24.4183 15.5817 28 20 28C24.4183 28 28 24.4183 28 20C28 15.5817 24.4183 12 20 12C15.5817 12 12 15.5817 12 20Z" fill="white"/>
</svg>
