<svg width="61" height="20" viewBox="0 0 61 20" fill="none" xmlns="http://www.w3.org/2000/svg">
<path d="M0 4.5C0 2.29086 1.79086 0.5 4 0.5H56.5C58.7091 0.5 60.5 2.29086 60.5 4.5V15.5C60.5 17.7091 58.7091 19.5 56.5 19.5H4C1.79086 19.5 0 17.7091 0 15.5V4.5Z" fill="#E8E4E4"/>
<path d="M14.484 6.1V14.5H13.5L8.46 8.236V14.5H7.26V6.1H8.244L13.284 12.364V6.1H14.484ZM22.8183 10.252H23.9703V13.528C23.5543 13.872 23.0703 14.136 22.5183 14.32C21.9663 14.504 21.3903 14.596 20.7903 14.596C19.9423 14.596 19.1783 14.412 18.4983 14.044C17.8183 13.668 17.2823 13.156 16.8903 12.508C16.5063 11.852 16.3143 11.116 16.3143 10.3C16.3143 9.484 16.5063 8.748 16.8903 8.092C17.2823 7.436 17.8183 6.924 18.4983 6.556C19.1863 6.188 19.9583 6.004 20.8143 6.004C21.4863 6.004 22.0943 6.116 22.6383 6.34C23.1903 6.556 23.6583 6.876 24.0423 7.3L23.2983 8.044C22.6263 7.396 21.8143 7.072 20.8623 7.072C20.2223 7.072 19.6463 7.212 19.1343 7.492C18.6303 7.764 18.2343 8.148 17.9463 8.644C17.6583 9.132 17.5143 9.684 17.5143 10.3C17.5143 10.908 17.6583 11.46 17.9463 11.956C18.2343 12.444 18.6303 12.828 19.1343 13.108C19.6463 13.388 20.2183 13.528 20.8503 13.528C21.6023 13.528 22.2583 13.348 22.8183 12.988V10.252ZM33.4918 6.1V14.5H32.5078L27.4678 8.236V14.5H26.2678V6.1H27.2518L32.2918 12.364V6.1H33.4918Z" fill="#606062"/>
<path d="M47 6.25L54.5 13.75" stroke="#606062" stroke-linecap="round"/>
<path d="M54.5 6.25L47 13.75" stroke="#606062" stroke-linecap="round"/>
</svg>
