<svg width="30" height="30" viewBox="0 0 30 30" fill="none" xmlns="http://www.w3.org/2000/svg">
<circle cx="15" cy="15" r="14.5" fill="#FCF7F7" stroke="#CAC2C3"/>
<path d="M18.9331 19.976V21H11.0771V20.184L15.7331 15.624C16.3198 15.048 16.7145 14.552 16.9171 14.136C17.1305 13.7093 17.2371 13.2827 17.2371 12.856C17.2371 12.1947 17.0078 11.6827 16.5491 11.32C16.1011 10.9467 15.4558 10.76 14.6131 10.76C13.3011 10.76 12.2825 11.176 11.5571 12.008L10.7411 11.304C11.1785 10.792 11.7331 10.3973 12.4051 10.12C13.0878 9.84267 13.8558 9.704 14.7091 9.704C15.8505 9.704 16.7518 9.976 17.4131 10.52C18.0851 11.0533 18.4211 11.7893 18.4211 12.728C18.4211 13.304 18.2931 13.8587 18.0371 14.392C17.7811 14.9253 17.2958 15.5387 16.5811 16.232L12.7731 19.976H18.9331Z" fill="black"/>
</svg>
