<svg width="22" height="23" viewBox="0 0 22 23" fill="none" xmlns="http://www.w3.org/2000/svg">
<path d="M3.09513 1.07082L2.88645 0.862134C2.72937 0.705152 2.54292 0.580644 2.33772 0.495721C2.13253 0.410798 1.91262 0.367123 1.69055 0.367188C1.46848 0.367253 1.2486 0.411057 1.04345 0.4961C0.83831 0.581144 0.651928 0.70576 0.494946 0.862834C0.337963 1.01991 0.213455 1.20636 0.128532 1.41156C0.0436096 1.61675 -6.67572e-05 1.83666 0 2.05873C6.48499e-05 2.2808 0.043869 2.50069 0.128912 2.70583C0.213955 2.91097 0.338572 3.09735 0.495646 3.25434L0.704332 3.46162C0.347343 3.862 0.157024 4.38376 0.17239 4.91995C0.187754 5.45615 0.407639 5.96616 0.786968 6.34543L15.2018 20.7617C15.2919 20.8513 15.4047 20.9147 15.5281 20.9452L21.1305 22.3457C21.2477 22.3749 21.3705 22.3733 21.487 22.341C21.6034 22.3087 21.7095 22.2468 21.7949 22.1614C21.8803 22.0759 21.9422 21.9699 21.9745 21.8534C22.0068 21.737 22.0084 21.6142 21.9792 21.497L20.5787 15.8946C20.548 15.7717 20.4846 15.6594 20.3952 15.5697L6.89073 2.06524C7.02579 1.97018 7.1901 1.92592 7.35464 1.94027C7.51917 1.95462 7.67334 2.02666 7.7899 2.14367L12.4006 6.7558C12.4657 6.82092 12.543 6.87256 12.6281 6.9078C12.7132 6.94304 12.8044 6.96117 12.8964 6.96117C12.9885 6.96117 13.0797 6.94304 13.1648 6.9078C13.2498 6.87256 13.3271 6.82092 13.3923 6.7558C13.4574 6.69069 13.509 6.6134 13.5442 6.52833C13.5795 6.44326 13.5976 6.35208 13.5976 6.26C13.5976 6.16792 13.5795 6.07674 13.5442 5.99167C13.509 5.9066 13.4574 5.8293 13.3923 5.76419L8.77872 1.15346C8.39919 0.773918 7.8888 0.554034 7.35227 0.538928C6.81575 0.523822 6.29379 0.71464 5.89351 1.07222C5.50868 0.728292 5.01071 0.538055 4.49459 0.537796C3.97847 0.537538 3.48031 0.727277 3.09513 1.07082ZM3.99711 2.14367C4.12844 2.01239 4.30653 1.93863 4.49222 1.93863C4.67791 1.93863 4.856 2.01239 4.98733 2.14367L19.2691 16.4227L20.3392 20.7043L16.0576 19.6342L1.77578 5.35522C1.71057 5.29017 1.65882 5.21289 1.62352 5.12781C1.58822 5.04273 1.57004 4.95152 1.57004 4.85941C1.57004 4.7673 1.58822 4.67609 1.62352 4.59101C1.65882 4.50593 1.71057 4.42865 1.77578 4.3636L3.99571 2.14367H3.99711Z" fill="#CAC2C3"/>
</svg>
