<svg width="27" height="27" viewBox="0 0 27 27" fill="none" xmlns="http://www.w3.org/2000/svg">
<circle cx="13.5" cy="13.5" r="13" fill="white" stroke="#606062"/>
<path fill-rule="evenodd" clip-rule="evenodd" d="M12.5121 19.7216L6.28653 13.6722C5.90449 13.3009 5.90449 12.6991 6.28653 12.3278L12.5121 6.27842C12.8942 5.90719 13.5136 5.90719 13.8956 6.27842C14.2776 6.64964 14.2776 7.25151 13.8956 7.62273L9.33999 12.0494L20.0217 12.0494C20.562 12.0494 21 12.475 21 13C21 13.525 20.562 13.9506 20.0217 13.9506L9.33999 13.9506L13.8956 18.3773C14.2776 18.7485 14.2776 19.3504 13.8956 19.7216C13.5136 20.0928 12.8942 20.0928 12.5121 19.7216Z" fill="#606062"/>
</svg>
