<svg width="15" height="14" viewBox="0 0 15 14" fill="none" xmlns="http://www.w3.org/2000/svg">
<path d="M5.42286 10.9187C5.79711 10.9932 6.16069 10.7501 6.23515 10.3759L6.23515 10.3759C6.30957 10.0017 6.06655 9.63805 5.69237 9.56363L2.38377 8.90553L2.38372 8.90552C2.00961 8.83129 1.64596 9.07409 1.57149 9.44829L1.57149 9.4483L0.913383 12.7569L1.01146 12.7764L0.913383 12.7569C0.838961 13.1311 1.08198 13.4948 1.45616 13.5692L1.45621 13.5692C1.50152 13.5782 1.54679 13.5826 1.59154 13.5826C1.91443 13.5826 2.20303 13.3552 2.26844 13.0264L2.26844 13.0264L2.58728 11.4235L5.44238 10.8206M5.42286 10.9187L5.44238 10.8206M5.42286 10.9187L5.42287 10.9187L5.44238 10.8206M5.42286 10.9187L3.67704 10.5714M5.44238 10.8206L3.57543 10.4493C3.60869 10.4906 3.64257 10.5313 3.67704 10.5714M3.67704 10.5714C4.61875 11.6681 6.00586 12.3281 7.49893 12.3281C9.50158 12.3281 11.3138 11.1421 12.1158 9.30663C12.1158 9.30663 12.1158 9.30662 12.1158 9.30662L12.2074 9.34666C11.3895 11.2186 9.54134 12.4281 7.49893 12.4281C5.93294 12.4281 4.48134 11.7162 3.52052 10.5403L3.67704 10.5714ZM13.0254 8.95022L13.0254 8.95021L2.61239 11.2972C3.79424 12.7381 5.57682 13.6097 7.49893 13.6097C10.011 13.6097 12.2842 12.1221 13.2901 9.81973L13.3818 9.85977C13.3818 9.85977 13.3818 9.85977 13.3818 9.85977C13.5345 9.51021 13.3749 9.10297 13.0254 8.95022Z" fill="white" stroke="white" stroke-width="0.2"/>
<path d="M13.5436 1.01278L13.5436 1.01278C13.9178 1.0872 14.1608 1.45087 14.0864 1.82502C14.0864 1.82503 14.0864 1.82503 14.0864 1.82504L13.4283 5.1337C13.3925 5.31339 13.2869 5.47153 13.1345 5.57332C13.1345 5.57332 13.1345 5.57332 13.1345 5.57333L13.079 5.49017C12.9811 5.55556 12.8668 5.58974 12.7508 5.58974C12.7123 5.58974 12.6737 5.586 12.6355 5.5784L13.5436 1.01278ZM13.5436 1.01278C13.1694 0.938457 12.8058 1.18136 12.7313 1.55556L12.4125 3.15872C11.212 1.7327 9.4253 0.872656 7.50101 0.872656C4.94923 0.872656 2.64005 2.38386 1.6181 4.72251L1.70973 4.76255L1.6181 4.72251C1.46534 5.0721 1.62491 5.47935 1.9745 5.6321L1.97453 5.63212C2.06439 5.67135 2.15826 5.69006 2.25082 5.69006C2.51683 5.69006 2.77064 5.53539 2.88413 5.2757L2.7925 5.23566L2.88413 5.2757C3.68619 3.4402 5.49843 2.2542 7.50105 2.2542C8.99383 2.2542 10.3809 2.91407 11.3226 4.01052L13.5436 1.01278Z" fill="white" stroke="white" stroke-width="0.2"/>
</svg>
