<svg width="26" height="21" viewBox="0 0 26 21" fill="none" xmlns="http://www.w3.org/2000/svg">
<path d="M25.409 11.1864C25.4349 11.1532 25.4608 11.12 25.4792 11.0794C25.4866 11.0646 25.4977 11.0461 25.5051 11.0314C25.5272 10.9723 25.5383 10.9095 25.542 10.8468C25.5383 10.784 25.5272 10.7213 25.5051 10.6622C25.4977 10.6474 25.4903 10.6253 25.4792 10.6142C25.457 10.5773 25.4349 10.5404 25.4054 10.5108C25.3906 10.4961 25.3795 10.485 25.3648 10.4703C25.3316 10.437 25.2873 10.4075 25.243 10.3853C25.2319 10.3817 25.2245 10.3742 25.2134 10.3705L25.2097 10.3668L0.856215 0.765024C0.586716 0.657979 0.284028 0.790876 0.176949 1.06034C0.132649 1.17109 0.128981 1.29291 0.165874 1.40366L3.07117 10.8431L0.169576 20.2862C0.110499 20.4708 0.162204 20.6701 0.295101 20.8104L0.309879 20.8252C0.453852 20.9618 0.667976 20.9987 0.856248 20.9286L25.2097 11.334L25.2134 11.3303C25.2245 11.3267 25.2319 11.3193 25.2429 11.3156C25.2872 11.2934 25.3278 11.2676 25.3647 11.2306C25.3795 11.2159 25.398 11.2048 25.409 11.1864ZM1.49115 2.13089L22.2896 10.3262L4.0125 10.3225L1.49115 2.13089ZM1.49115 19.5626L4.0125 11.371L22.2896 11.3673L1.49115 19.5626Z" fill="white"/>
</svg>
