<svg width="32" height="32" viewBox="0 0 32 32" fill="none" xmlns="http://www.w3.org/2000/svg">
<path d="M32 16C32 7.16344 24.8366 0 16 0C7.16344 0 0 7.16344 0 16C0 24.8366 7.16344 32 16 32C24.8366 32 32 24.8366 32 16Z" fill="#66CC15"/>
<path fill-rule="evenodd" clip-rule="evenodd" d="M16 6C10.4772 6 6 10.4772 6 16C6 21.5228 10.4772 26 16 26C21.5228 26 26 21.5228 26 16C26 10.4772 21.5228 6 16 6ZM8 16C8 20.4183 11.5817 24 16 24C20.4183 24 24 20.4183 24 16C24 11.5817 20.4183 8 16 8C11.5817 8 8 11.5817 8 16Z" fill="white"/>
<path d="M21.5399 12.7096L20.9978 12.1675C20.7745 11.9442 20.4099 11.9442 20.1846 12.1675L14.5004 17.8537L11.5227 14.876C11.2994 14.6527 10.9348 14.6527 10.7096 14.876L10.1675 15.4181C9.94417 15.6414 9.94417 16.006 10.1675 16.2312L14.0919 20.1556C14.2045 20.2683 14.3496 20.3255 14.4966 20.3255C14.6436 20.3255 14.7905 20.2683 14.9012 20.1556L21.5341 13.5227C21.7632 13.2956 21.7632 12.9329 21.5399 12.7096Z" fill="white"/>
</svg>
