<svg width="126" height="131" viewBox="0 0 126 131" fill="none" xmlns="http://www.w3.org/2000/svg">
<circle cx="71" cy="55" r="55" fill="#F3FBED"/>
<path d="M83.0724 88.7303L83.5 89.4387L83.9276 88.7303C85.1354 86.7291 86.7426 85.13 88.7557 83.9289L89.4747 83.4998L88.7555 83.071C86.7426 81.871 85.1354 80.2719 83.9276 78.2707L83.5 77.5623L83.0724 78.2707C81.8646 80.2719 80.2574 81.871 78.2445 83.071L77.5253 83.4998L78.2443 83.9289C80.2574 85.13 81.8646 86.7291 83.0724 88.7303ZM81.9161 69.4994H85.0839V71.0714C85.0839 76.9838 89.6338 81.6649 95.5006 81.9173V85.0827C89.6337 85.3351 85.0839 90.0172 85.0839 95.9286V97.5006H81.9161V95.9286C81.9161 90.0172 77.3672 85.3351 71.4994 85.0827V81.9173C77.3672 81.665 81.9161 76.9838 81.9161 71.0714V69.4994Z" fill="#66CC15" stroke="#66CC15" stroke-width="0.998797"/>
<path d="M95.0724 61.7303L95.5 62.4387L95.9276 61.7303C97.1354 59.7291 98.7426 58.13 100.756 56.9289L101.475 56.4998L100.756 56.071C98.7426 54.871 97.1354 53.2719 95.9276 51.2707L95.5 50.5623L95.0724 51.2707C93.8646 53.2719 92.2574 54.871 90.2445 56.071L89.5253 56.4998L90.2443 56.9289C92.2574 58.13 93.8646 59.7291 95.0724 61.7303ZM93.9161 42.4994H97.0839V44.0714C97.0839 49.9838 101.634 54.6649 107.501 54.9173V58.0827C101.634 58.3351 97.0839 63.0172 97.0839 68.9286V70.5006H93.9161V68.9286C93.9161 63.0172 89.3672 58.3351 83.4994 58.0827V54.9173C89.3672 54.665 93.9161 49.9838 93.9161 44.0714V42.4994Z" fill="#66CC15" stroke="#66CC15" stroke-width="0.998797"/>
<path d="M50.0672 57.6938L50.5 58.4422L50.9328 57.6938C51.8427 56.1206 53.0518 54.8661 54.5641 53.9244L55.2461 53.4998L54.564 53.0755C53.0517 52.1346 51.8427 50.8802 50.9328 49.307L50.5 48.5586L50.0672 49.307C49.1573 50.8802 47.9483 52.1346 46.436 53.0755L45.7539 53.4998L46.4359 53.9244C47.9482 54.8661 49.1573 56.1206 50.0672 57.6938ZM49.4167 42.5H51.5833V43.6429C51.5833 48.3292 55.0159 52.0818 59.5 52.3427V54.6573C55.0159 54.9183 51.5833 58.6716 51.5833 63.3571V64.5H49.4167V63.3571C49.4167 58.6716 45.9848 54.9182 41.5 54.6573V52.3427C45.9848 52.0818 49.4167 48.3292 49.4167 43.6429V42.5Z" fill="#66CC15" stroke="#66CC15"/>
<path d="M61.0296 74.296L61.0293 74.2963L31.1485 104.098L30.7801 104.466L30.4276 104.083L19.6468 92.3739C18.9023 91.5657 17.6435 91.5131 16.8337 92.2576L61.0296 74.296ZM61.0296 74.296C61.806 73.5202 63.0667 73.5209 63.8441 74.2995C64.6206 75.078 64.6191 76.3387 63.8402 77.1149L63.8401 77.1151L32.1245 108.748C31.7517 109.119 31.2452 109.328 30.719 109.328C30.7001 109.328 30.693 109.328 30.6871 109.328L30.6871 109.328L30.6762 109.327C30.1348 109.316 29.6214 109.085 29.2546 108.686L29.2544 108.686M61.0296 74.296L29.2544 108.686M29.2544 108.686L16.7176 95.0706C16.7176 95.0706 16.7176 95.0705 16.7176 95.0705M29.2544 108.686L16.7176 95.0705M16.7176 95.0705C15.973 94.2615 16.0249 93.0022 16.8335 92.2578L16.7176 95.0705Z" fill="#66CC15" stroke="#66CC15"/>
<path d="M61.6066 97.9542C61.6066 96.8545 62.4978 95.9634 63.5973 95.9634C64.697 95.9634 65.5882 96.8546 65.5882 97.9542C65.5882 115.898 50.9879 130.498 33.0441 130.498C15.0995 130.498 0.5 115.898 0.5 97.9542C0.5 80.0097 15.0995 65.4102 33.0441 65.4102C34.1437 65.4102 35.0349 66.3013 35.0349 67.401C35.0349 68.5005 34.1437 69.3917 33.0441 69.3917C17.2945 69.3917 4.48152 82.2047 4.48152 97.9542C4.48152 113.705 17.2945 126.517 33.0441 126.517C48.7945 126.517 61.6066 113.705 61.6066 97.9542Z" fill="#66CC15" stroke="#66CC15"/>
</svg>
