<svg width="132" height="132" viewBox="0 0 132 132" fill="none" xmlns="http://www.w3.org/2000/svg">
<path d="M65.7472 0C29.4925 0 0 29.4948 0 65.7485C0 102.002 29.4925 131.497 65.7472 131.497C102.002 131.497 131.497 102.002 131.497 65.7485C131.497 29.4948 102.002 0 65.7472 0ZM65.7472 122.874C34.2484 122.874 8.62291 97.2473 8.62291 65.7485C8.62291 34.2494 34.2481 8.62324 65.7472 8.62324C97.2463 8.62324 122.873 34.2497 122.873 65.7485C122.873 97.2473 97.246 122.874 65.7472 122.874Z" fill="#66CC15"/>
<path d="M89.5506 44.2243L55.6471 78.1262L41.9422 64.4242C40.258 62.7421 37.5298 62.7411 35.8456 64.4252C34.1608 66.11 34.1608 68.8386 35.8456 70.5227L52.5993 87.2738C53.4412 88.1147 54.5442 88.5355 55.6471 88.5355C56.75 88.5355 57.8559 88.1147 58.6975 87.2725C58.7001 87.2689 58.7021 87.2653 58.7064 87.261L95.6468 50.3209C97.3317 48.6377 97.3317 45.9072 95.6468 44.224C93.963 42.5399 91.2328 42.5399 89.5506 44.2243Z" fill="#66CC15"/>
</svg>
