<svg width="59" height="20" viewBox="0 0 59 20" fill="none" xmlns="http://www.w3.org/2000/svg">
<path d="M0.5 4.5C0.5 2.29086 2.29086 0.5 4.5 0.5H55C57.2091 0.5 59 2.29086 59 4.5V15.5C59 17.7091 57.2091 19.5 55 19.5H4.5C2.29086 19.5 0.5 17.7091 0.5 15.5V4.5Z" fill="#E8E4E4"/>
<path d="M11.24 14.596C10.12 14.596 9.248 14.276 8.624 13.636C8 12.996 7.688 12.076 7.688 10.876V6.1H8.888V10.828C8.888 12.628 9.676 13.528 11.252 13.528C12.02 13.528 12.608 13.308 13.016 12.868C13.424 12.42 13.628 11.74 13.628 10.828V6.1H14.792V10.876C14.792 12.084 14.48 13.008 13.856 13.648C13.232 14.28 12.36 14.596 11.24 14.596ZM19.7002 14.596C19.0682 14.596 18.4562 14.5 17.8642 14.308C17.2802 14.108 16.8202 13.852 16.4842 13.54L16.9282 12.604C17.2482 12.892 17.6562 13.128 18.1522 13.312C18.6562 13.488 19.1722 13.576 19.7002 13.576C20.3962 13.576 20.9162 13.46 21.2602 13.228C21.6042 12.988 21.7762 12.672 21.7762 12.28C21.7762 11.992 21.6802 11.76 21.4882 11.584C21.3042 11.4 21.0722 11.26 20.7922 11.164C20.5202 11.068 20.1322 10.96 19.6282 10.84C18.9962 10.688 18.4842 10.536 18.0922 10.384C17.7082 10.232 17.3762 10 17.0962 9.688C16.8242 9.368 16.6882 8.94 16.6882 8.404C16.6882 7.956 16.8042 7.552 17.0362 7.192C17.2762 6.832 17.6362 6.544 18.1162 6.328C18.5962 6.112 19.1922 6.004 19.9042 6.004C20.4002 6.004 20.8882 6.068 21.3682 6.196C21.8482 6.324 22.2602 6.508 22.6042 6.748L22.2082 7.708C21.8562 7.484 21.4802 7.316 21.0802 7.204C20.6802 7.084 20.2882 7.024 19.9042 7.024C19.2242 7.024 18.7122 7.148 18.3682 7.396C18.0322 7.644 17.8642 7.964 17.8642 8.356C17.8642 8.644 17.9602 8.88 18.1522 9.064C18.3442 9.24 18.5802 9.38 18.8602 9.484C19.1482 9.58 19.5362 9.684 20.0242 9.796C20.6562 9.948 21.1642 10.1 21.5482 10.252C21.9322 10.404 22.2602 10.636 22.5322 10.948C22.8122 11.26 22.9522 11.68 22.9522 12.208C22.9522 12.648 22.8322 13.052 22.5922 13.42C22.3522 13.78 21.9882 14.068 21.5002 14.284C21.0122 14.492 20.4122 14.596 19.7002 14.596ZM24.7053 6.1H28.2453C29.1333 6.1 29.9213 6.276 30.6093 6.628C31.2973 6.98 31.8293 7.476 32.2053 8.116C32.5893 8.748 32.7813 9.476 32.7813 10.3C32.7813 11.124 32.5893 11.856 32.2053 12.496C31.8293 13.128 31.2973 13.62 30.6093 13.972C29.9213 14.324 29.1333 14.5 28.2453 14.5H24.7053V6.1ZM28.1733 13.456C28.8533 13.456 29.4493 13.324 29.9613 13.06C30.4813 12.796 30.8813 12.428 31.1613 11.956C31.4413 11.476 31.5813 10.924 31.5813 10.3C31.5813 9.676 31.4413 9.128 31.1613 8.656C30.8813 8.176 30.4813 7.804 29.9613 7.54C29.4493 7.276 28.8533 7.144 28.1733 7.144H25.9053V13.456H28.1733Z" fill="#606062"/>
<path d="M45.5 6.25L53 13.75" stroke="#606062" stroke-linecap="round"/>
<path d="M53 6.25L45.5 13.75" stroke="#606062" stroke-linecap="round"/>
</svg>
