<svg width="19" height="18" viewBox="0 0 19 18" fill="none" xmlns="http://www.w3.org/2000/svg">
<path d="M8.65691 13.3154C8.6724 13.3301 8.68864 13.3441 8.70558 13.3573C8.71303 13.3631 8.72088 13.3681 8.72852 13.3736C8.73813 13.3805 8.74758 13.3876 8.75759 13.3939C8.76694 13.3999 8.77665 13.405 8.78622 13.4105C8.79513 13.4156 8.80387 13.4209 8.81305 13.4256C8.82288 13.4306 8.83303 13.4349 8.84309 13.4394C8.85258 13.4436 8.86193 13.4482 8.87168 13.452C8.88152 13.4559 8.89153 13.459 8.9015 13.4624C8.91191 13.4659 8.92215 13.4697 8.93278 13.4728C8.94275 13.4756 8.9529 13.4778 8.96296 13.4802C8.97381 13.4828 8.98453 13.4857 8.99556 13.4878C9.00716 13.49 9.0189 13.4913 9.03059 13.4929C9.04025 13.4942 9.04978 13.4959 9.05962 13.4969C9.08132 13.4989 9.10312 13.5 9.12491 13.5C9.14671 13.5 9.1685 13.4989 9.19016 13.4969C9.20013 13.4959 9.20975 13.4942 9.21959 13.4928C9.23115 13.4913 9.24271 13.49 9.25418 13.4878C9.26543 13.4857 9.27641 13.4827 9.28744 13.4801C9.29728 13.4777 9.30721 13.4756 9.31696 13.4728C9.32781 13.4697 9.33826 13.4658 9.3489 13.4622C9.35865 13.4588 9.36848 13.4558 9.3781 13.452C9.38803 13.4481 9.39751 13.4436 9.40718 13.4392C9.4171 13.4347 9.42712 13.4305 9.43682 13.4256C9.44609 13.4209 9.45482 13.4155 9.46378 13.4104C9.47335 13.405 9.48306 13.3998 9.49237 13.3939C9.50216 13.3877 9.51138 13.3807 9.52078 13.374C9.52867 13.3684 9.53675 13.3632 9.54442 13.3572C9.56053 13.3446 9.57592 13.3313 9.5907 13.3173C9.59141 13.3167 9.5922 13.3162 9.59286 13.3155L12.6812 10.3756C12.9396 10.1295 12.9396 9.73064 12.6812 9.4846C12.4228 9.2386 12.0037 9.23856 11.7453 9.48456L9.78667 11.3491V3.63001C9.78667 3.28207 9.49038 3 9.12491 3C8.75944 3 8.46315 3.28207 8.46315 3.63001V11.349L6.50469 9.4846C6.2463 9.23856 5.82727 9.23856 5.56883 9.4846C5.31039 9.73064 5.31039 10.1295 5.56883 10.3756L8.65691 13.3154Z" fill="#606062"/>
<path d="M15.6193 9.375C15.271 9.375 14.9886 9.65833 14.9886 10.0078V14.8594H3.63636V10.0078C3.63636 9.65833 3.35399 9.375 3.00568 9.375C2.65738 9.375 2.375 9.65833 2.375 10.0078V15.4922C2.375 15.8417 2.65738 16.125 3.00568 16.125H15.6193C15.9676 16.125 16.25 15.8417 16.25 15.4922V10.0078C16.25 9.65833 15.9676 9.375 15.6193 9.375Z" fill="#606062"/>
</svg>
