<svg width="13" height="13" viewBox="0 0 13 13" fill="none" xmlns="http://www.w3.org/2000/svg">
<circle cx="6.5" cy="6.5" r="6.5" fill="#181717"/>
<path d="M6.204 5.21602C6.204 4.8979 6.46188 4.64002 6.78 4.64002V4.64002C7.09812 4.64002 7.356 4.8979 7.356 5.21602V10.424C7.356 10.7421 7.09812 11 6.78 11V11C6.46188 11 6.204 10.7421 6.204 10.424V5.21602ZM6.78 3.41602C6.556 3.41602 6.368 3.34402 6.216 3.20002C6.072 3.05602 6 2.88002 6 2.67202C6 2.46402 6.072 2.28802 6.216 2.14402C6.368 1.99202 6.556 1.91602 6.78 1.91602C7.004 1.91602 7.188 1.98802 7.332 2.13202C7.484 2.26802 7.56 2.44002 7.56 2.64802C7.56 2.86402 7.484 3.04802 7.332 3.20002C7.188 3.34402 7.004 3.41602 6.78 3.41602Z" fill="white"/>
</svg>
