<svg width="54" height="54" viewBox="0 0 54 54" fill="none" xmlns="http://www.w3.org/2000/svg">
<circle cx="27" cy="27" r="27" fill="#FBE0E0"/>
<path d="M32.2236 16.0094L32.2236 16.0093C32.1216 15.9074 31.9832 15.85 31.839 15.85H18.0077C17.8634 15.85 17.7251 15.9074 17.6231 16.0093C17.6231 16.0093 17.6231 16.0093 17.6231 16.0094L14.0093 19.6231C13.9074 19.7251 13.85 19.8634 13.85 20.0077V25.0989C13.85 32.2124 17.9623 38.722 24.5741 42.0907C24.6519 42.1304 24.7366 42.15 24.8212 42.15C24.9045 42.15 24.9879 42.1309 25.0645 42.0926L24.9974 41.9585L25.0645 42.0926L25.1275 42.0611C31.8287 38.7123 35.9966 32.1743 35.9966 24.9963V20.008C35.9966 19.8638 35.9392 19.7254 35.8372 19.6234L32.2236 16.0094ZM34.9088 24.9963C34.9088 31.6887 31.0536 37.8018 24.8246 40.9953C18.7163 37.7755 14.938 31.7076 14.938 25.0987V20.2327L18.2331 16.9376H31.6136L34.9087 20.2327L34.9088 24.9963Z" fill="black" stroke="black" stroke-width="0.3"/>
<path d="M30.8407 20.5277H19.0111C18.7107 20.5277 18.4672 20.7713 18.4672 21.0717V33.2513C18.4672 33.5517 18.7107 33.7953 19.0111 33.7953H30.8407C31.1411 33.7953 31.3846 33.5517 31.3846 33.2513V21.0717C31.3846 20.7713 31.1411 20.5277 30.8407 20.5277ZM30.2967 32.7074H19.5551V21.6156H30.2967V32.7074Z" fill="black" stroke="black" stroke-width="0.3"/>
<path d="M21.177 31.7455C20.883 31.738 20.6471 31.4974 20.6469 31.2016L20.6469 31.2015L20.6469 29.8189C20.6469 28.2513 21.6566 26.9005 23.1141 26.5445L23.1146 26.5444L23.1166 26.5437L23.1167 26.5439L23.1317 26.5402H23.1353C23.1962 26.528 23.258 26.5266 23.3182 26.5351H23.3186L23.3214 26.5355C23.3237 26.5358 23.326 26.5362 23.3284 26.5366C23.3288 26.5366 23.3293 26.5367 23.3298 26.5368L21.177 31.7455ZM21.177 31.7455L21.177 31.7457H21.1911H28.6563C28.9567 31.7457 29.2002 31.5021 29.2002 31.2017V29.8191C29.2002 28.2474 28.1883 26.8962 26.7272 26.5444L26.7099 26.5403H26.7072C26.6433 26.5275 26.578 26.5264 26.5145 26.5366C26.4689 26.5439 26.4214 26.5653 26.4034 26.5734L21.177 31.7455ZM23.5574 26.6355C23.4962 26.5915 23.4219 26.5528 23.3351 26.5378L23.6513 26.7206L23.6507 26.7202L23.6506 26.72L23.6505 26.72C23.6502 26.7198 23.6517 26.7209 23.6534 26.7222M23.5574 26.6355C23.5574 26.6355 23.5575 26.6355 23.5575 26.6355L23.47 26.7574M23.5574 26.6355C23.5573 26.6354 23.5573 26.6354 23.5573 26.6354L23.47 26.7574M23.5574 26.6355C23.591 26.6595 23.637 26.6941 23.6753 26.7434M23.47 26.7574C23.5031 26.781 23.5354 26.8064 23.56 26.8395C23.5601 26.8397 23.5603 26.8399 23.5605 26.84C23.5607 26.8401 23.5609 26.8403 23.561 26.8405M23.47 26.7574L26.2818 26.8405M23.6753 26.7434C23.6705 26.7376 23.6661 26.7333 23.6629 26.7303C23.6589 26.7267 23.6556 26.7239 23.6537 26.7224L23.6534 26.7222M23.6753 26.7434C23.6777 26.7462 23.6803 26.7494 23.6828 26.7529M23.6753 26.7434C23.677 26.7456 23.6787 26.7477 23.6804 26.75L23.6818 26.7519L23.682 26.7518C23.6822 26.7522 23.6825 26.7525 23.6828 26.7529M23.6534 26.7222C23.6552 26.7236 23.6584 26.7263 23.6623 26.7298C23.6666 26.7339 23.6733 26.7405 23.6803 26.75C23.6808 26.7506 23.6813 26.7513 23.6818 26.7519L23.5672 26.8359L23.561 26.8405M23.6534 26.7222L26.1589 26.7544M23.6828 26.7529C23.9712 27.1456 24.4345 27.3803 24.9215 27.3803C25.4079 27.3803 25.8704 27.1462 26.1589 26.7544M23.6828 26.7529C23.6838 26.7543 23.6848 26.7558 23.6858 26.7573L23.6883 26.7606L23.6897 26.7634C23.6916 26.7666 23.6934 26.7699 23.6952 26.7734L23.561 26.8405M26.1589 26.7544C26.1583 26.7553 26.1577 26.7562 26.1571 26.7571C26.1389 26.7844 26.1318 26.8141 26.1318 26.8405H26.2818M26.1589 26.7544C26.1596 26.7536 26.1602 26.7527 26.1609 26.7518L26.2818 26.8405M26.1589 26.7544C26.1608 26.7518 26.1627 26.7492 26.1647 26.7468M26.1589 26.7544L26.3985 26.5756L26.4542 26.7149L26.3973 26.5761C26.3976 26.576 26.3979 26.5758 26.3983 26.5757C26.3978 26.5758 26.3967 26.5762 26.3949 26.5768L26.3889 26.5786L26.38 26.5813C26.3675 26.5852 26.344 26.5929 26.3193 26.6075L26.3193 26.6075L26.3183 26.6082C26.2598 26.6437 26.2072 26.6902 26.1647 26.7468M23.561 26.8405C23.8776 27.2723 24.3862 27.5303 24.9215 27.5303C25.4568 27.5303 25.9652 27.2723 26.2818 26.8405M26.2818 26.8405C26.2818 26.8403 26.282 26.8403 26.282 26.8403M26.2818 26.8405L26.282 26.8403M26.282 26.8403L26.1612 26.7514C26.1623 26.7499 26.1635 26.7483 26.1647 26.7468M26.282 26.8403C26.282 26.6903 26.2819 26.6903 26.2819 26.6903L26.2817 26.6903L26.2814 26.6903L26.2808 26.6903L26.2796 26.6903L26.277 26.6904L26.2713 26.6907C26.2674 26.691 26.2626 26.6914 26.2574 26.6923C26.2475 26.694 26.2321 26.6975 26.2149 26.7061C26.1996 26.7138 26.1808 26.7265 26.1647 26.7468M23.3531 26.5425C23.3529 26.5424 23.3524 26.5423 23.352 26.5421L23.353 26.5425L23.3531 26.5425ZM23.3531 26.5425C23.3535 26.5426 23.3537 26.5427 23.3536 26.5427L23.3534 26.5426L23.3531 26.5425ZM21.735 29.8191C21.735 28.8592 22.2787 28.0409 23.0754 27.7082C23.5626 28.1895 24.2273 28.4681 24.9218 28.4681C25.616 28.4681 26.2806 28.1896 26.7679 27.7084C27.5563 28.0403 28.1124 28.8743 28.1124 29.8191V30.6578H27.2293V29.6359C27.2293 29.3355 26.9857 29.092 26.6853 29.092C26.3849 29.092 26.1414 29.3355 26.1414 29.6359V30.6578H23.7061V29.6359C23.7061 29.3355 23.4626 29.092 23.1622 29.092C22.8618 29.092 22.6182 29.3355 22.6182 29.6359V30.6578H21.7351L21.735 29.8191Z" fill="black" stroke="black" stroke-width="0.3"/>
<path d="M24.9213 26.9164C26.1175 26.9164 27.0902 25.9436 27.0902 24.7475C27.0902 23.5513 26.1175 22.5785 24.9213 22.5785C23.7251 22.5785 22.7523 23.5513 22.7523 24.7475C22.7523 25.9436 23.7251 26.9164 24.9213 26.9164ZM24.9213 23.6664C25.5173 23.6664 26.0024 24.1515 26.0024 24.7475C26.0024 25.3434 25.5173 25.8285 24.9213 25.8285C24.3253 25.8285 23.8402 25.3434 23.8402 24.7475C23.8402 24.1515 24.3253 23.6664 24.9213 23.6664Z" fill="black" stroke="black" stroke-width="0.3"/>
</svg>
