<svg width="54" height="54" viewBox="0 0 54 54" fill="none" xmlns="http://www.w3.org/2000/svg">
<circle cx="27" cy="27" r="27" fill="#FBE0E0"/>
<path d="M27 27C28.5913 27 30.1174 26.3679 31.2426 25.2426C32.3679 24.1174 33 22.5913 33 21C33 19.4087 32.3679 17.8826 31.2426 16.7574C30.1174 15.6321 28.5913 15 27 15C25.4087 15 23.8826 15.6321 22.7574 16.7574C21.6321 17.8826 21 19.4087 21 21C21 22.5913 21.6321 24.1174 22.7574 25.2426C23.8826 26.3679 25.4087 27 27 27ZM31 21C31 22.0609 30.5786 23.0783 29.8284 23.8284C29.0783 24.5786 28.0609 25 27 25C25.9391 25 24.9217 24.5786 24.1716 23.8284C23.4214 23.0783 23 22.0609 23 21C23 19.9391 23.4214 18.9217 24.1716 18.1716C24.9217 17.4214 25.9391 17 27 17C28.0609 17 29.0783 17.4214 29.8284 18.1716C30.5786 18.9217 31 19.9391 31 21ZM39 37C39 39 37 39 37 39H17C17 39 15 39 15 37C15 35 17 29 27 29C37 29 39 35 39 37ZM37 36.992C36.998 36.5 36.692 35.02 35.336 33.664C34.032 32.36 31.578 31 27 31C22.42 31 19.968 32.36 18.664 33.664C17.308 35.02 17.004 36.5 17 36.992H37Z" fill="black"/>
</svg>
