<svg width="54" height="54" viewBox="0 0 54 54" fill="none" xmlns="http://www.w3.org/2000/svg">
<circle cx="27" cy="27" r="27" fill="#FBE0E0"/>
<path d="M31.7527 24.1039C31.7527 21.4764 29.6249 19.3457 27.0014 19.3457C24.3779 19.3457 22.25 21.4766 22.25 24.1039C22.25 26.7311 24.3779 28.862 27.0014 28.862C29.6249 28.862 31.7527 26.7311 31.7527 24.1039ZM23.4891 24.1039C23.4891 22.1591 25.0592 20.5868 27.0011 20.5868C28.9431 20.5868 30.5132 22.1591 30.5132 24.1039C30.5132 26.0486 28.9431 27.6209 27.0011 27.6209C25.0592 27.6209 23.4891 26.0486 23.4891 24.1039Z" fill="black" stroke="black" stroke-width="0.4"/>
<path d="M21.9802 32.6879C22.1455 32.9776 22.538 33.081 22.8273 32.8948C24.0875 32.15 25.5336 31.7569 27.0004 31.7569C29.025 31.7569 30.967 32.5017 32.4544 33.8465C32.5784 33.95 32.723 34.012 32.8676 34.012C33.0329 34.012 33.1981 33.95 33.3221 33.8052C33.5493 33.5569 33.5287 33.1638 33.2808 32.9362C31.5661 31.3639 29.3349 30.5156 27.0004 30.5156C25.3064 30.5156 23.633 30.9708 22.1867 31.8397C21.8975 32.0052 21.7942 32.3983 21.9801 32.688L21.9802 32.6879Z" fill="black" stroke="black" stroke-width="0.4"/>
<path d="M18.5296 18.5181C15.0175 22.0146 14.0259 27.2282 16.0091 31.7797C16.1124 32.0073 16.3397 32.1521 16.5876 32.1521C16.6702 32.1521 16.7529 32.1314 16.8355 32.1107C17.1454 31.9659 17.29 31.6142 17.1661 31.3039C15.3687 27.2075 16.2571 22.5319 19.3972 19.3872C23.2605 15.5184 29.3755 15.2288 33.5899 18.4976L32.495 18.6217C32.1644 18.6631 31.9165 18.9735 31.9578 19.3045C31.9992 19.6148 32.2677 19.8424 32.5776 19.8424H32.6602L35.1393 19.5528C35.4699 19.5114 35.6971 19.2217 35.6765 18.8907V18.8493V18.7666L35.5525 16.5529C35.5319 16.2012 35.2426 15.9529 34.8914 15.9736C34.5402 15.9944 34.2923 16.284 34.313 16.6357L34.3543 17.4839C29.6232 13.8634 22.8267 14.1945 18.5297 18.5184L18.5296 18.5181Z" fill="black" stroke="black" stroke-width="0.4"/>
<path d="M20.411 35.504L21.5059 35.3799C21.8365 35.3385 22.0844 35.0282 22.0431 34.6971C22.0017 34.3661 21.6918 34.1178 21.3613 34.1592L18.8822 34.4489C18.5516 34.4902 18.3244 34.7799 18.345 35.1109V35.1523V35.235L18.469 37.4487C18.4897 37.7797 18.7582 38.028 19.0888 38.028H19.1301C19.4813 38.0073 19.7292 37.7176 19.7086 37.3659L19.6672 36.5177C21.8158 38.1521 24.4186 39.0003 27.0011 39.0003C30.0793 39.0003 33.137 37.821 35.4716 35.4832C39.0043 31.9455 39.9753 26.732 37.9713 22.1597C37.8267 21.8494 37.4755 21.7046 37.145 21.8494C36.8351 21.9942 36.6905 22.3459 36.8351 22.6769C38.6324 26.7733 37.7648 31.4698 34.6039 34.6352C30.7407 38.4833 24.6257 38.773 20.4112 35.5042L20.411 35.504Z" fill="black" stroke="black" stroke-width="0.4"/>
</svg>
