<svg width="54" height="54" viewBox="0 0 54 54" fill="none" xmlns="http://www.w3.org/2000/svg">
<circle cx="27" cy="27" r="27" fill="#FBE0E0"/>
<path d="M26.6 29.2C28.5882 29.2 30.2 27.5882 30.2 25.6C30.2 23.6118 28.5882 22 26.6 22C24.6118 22 23 23.6118 23 25.6C23 27.5882 24.6118 29.2 26.6 29.2Z" stroke="black" stroke-width="2" stroke-linecap="round" stroke-linejoin="round"/>
<path d="M26.6 16C24.0539 16 21.6121 17.0114 19.8118 18.8118C18.0114 20.6121 17 23.0539 17 25.6C17 27.8704 17.4824 29.356 18.8 31L26.6 40L34.4 31C35.7176 29.356 36.2 27.8704 36.2 25.6C36.2 23.0539 35.1886 20.6121 33.3882 18.8118C31.5879 17.0114 29.1461 16 26.6 16V16Z" stroke="black" stroke-width="2" stroke-linecap="round" stroke-linejoin="round"/>
</svg>
