<svg width="38" height="38" viewBox="0 0 38 38" fill="none" xmlns="http://www.w3.org/2000/svg">
<circle cx="19" cy="19" r="19" fill="white"/>
<path d="M10.3165 17.6887C10.2912 17.7155 10.2673 17.7436 10.2447 17.773C10.2347 17.7859 10.2261 17.7995 10.2167 17.8128C10.2049 17.8294 10.1927 17.8458 10.1819 17.8632C10.1716 17.8794 10.1628 17.8962 10.1534 17.9128C10.1447 17.9282 10.1356 17.9434 10.1276 17.9593C10.1189 17.9763 10.1117 17.9939 10.104 18.0114C10.0966 18.0278 10.0888 18.044 10.0823 18.0609C10.0757 18.078 10.0703 18.0953 10.0645 18.1126C10.0584 18.1306 10.0519 18.1484 10.0467 18.1668C10.0418 18.1841 10.0381 18.2017 10.034 18.2191C10.0295 18.2379 10.0246 18.2565 10.021 18.2756C10.0172 18.2957 10.015 18.3161 10.0122 18.3364C10.01 18.3531 10.007 18.3696 10.0054 18.3867C10.0019 18.4243 10 18.4621 10 18.4998C10 18.5376 10.0019 18.5754 10.0054 18.6129C10.007 18.6302 10.01 18.6469 10.0123 18.664C10.015 18.684 10.0172 18.704 10.021 18.7239C10.0246 18.7434 10.0297 18.7624 10.0342 18.7816C10.0383 18.7986 10.0418 18.8158 10.0466 18.8327C10.052 18.8515 10.0586 18.8697 10.0648 18.8881C10.0706 18.905 10.0757 18.922 10.0822 18.9387C10.0889 18.9559 10.0968 18.9724 10.1043 18.9891C10.1119 19.0063 10.1191 19.0237 10.1276 19.0405C10.1356 19.0565 10.1448 19.0717 10.1536 19.0872C10.1629 19.1038 10.1717 19.1206 10.1819 19.1368C10.1926 19.1537 10.2046 19.1697 10.216 19.186C10.2257 19.1997 10.2346 19.2137 10.2448 19.227C10.2664 19.2549 10.2892 19.2816 10.3131 19.3072C10.3143 19.3084 10.3151 19.3098 10.3163 19.311L15.3562 24.664C15.778 25.112 16.4618 25.112 16.8835 24.664C17.3052 24.2161 17.3053 23.4898 16.8836 23.0419L13.6873 19.6469L26.92 19.6469C27.5164 19.6469 28 19.1333 28 18.4998C28 17.8664 27.5164 17.3528 26.92 17.3528L13.6874 17.3528L16.8835 13.9581C17.3053 13.5102 17.3053 12.7839 16.8835 12.336C16.4618 11.888 15.778 11.888 15.3562 12.336L10.3165 17.6887Z" fill="#181717"/>
</svg>
