<svg width="54" height="54" viewBox="0 0 54 54" fill="none" xmlns="http://www.w3.org/2000/svg">
<circle cx="27" cy="27" r="27" fill="#FBE0E0"/>
<mask id="path-2-outside-1_4291_39965" maskUnits="userSpaceOnUse" x="12" y="18" width="31" height="20" fill="black">
<rect fill="white" x="12" y="18" width="31" height="20"/>
<path fill-rule="evenodd" clip-rule="evenodd" d="M40.6013 23.9551L40.6008 35.8001H14.2006V20.2002H36.0049C36.0017 20.1339 36 20.0671 36 20C36 19.6547 36.0438 19.3196 36.126 19H13.5999C13.27 19 13 19.27 13 19.5999V36.4001C13 36.73 13.27 37 13.5999 37H41.2003C41.5303 37 41.8002 36.73 41.8002 36.4001L41.8004 23.5729C41.43 23.7599 41.0266 23.891 40.6013 23.9551Z"/>
</mask>
<path fill-rule="evenodd" clip-rule="evenodd" d="M40.6013 23.9551L40.6008 35.8001H14.2006V20.2002H36.0049C36.0017 20.1339 36 20.0671 36 20C36 19.6547 36.0438 19.3196 36.126 19H13.5999C13.27 19 13 19.27 13 19.5999V36.4001C13 36.73 13.27 37 13.5999 37H41.2003C41.5303 37 41.8002 36.73 41.8002 36.4001L41.8004 23.5729C41.43 23.7599 41.0266 23.891 40.6013 23.9551Z" fill="black"/>
<path d="M40.6013 23.9551L40.5714 23.7573L40.4013 23.783L40.4013 23.9551L40.6013 23.9551ZM40.6008 35.8001V36.0001H40.8008L40.8008 35.8002L40.6008 35.8001ZM14.2006 35.8001H14.0006V36.0001H14.2006V35.8001ZM14.2006 20.2002V20.0002H14.0006V20.2002H14.2006ZM36.0049 20.2002V20.4002H36.215L36.2047 20.1904L36.0049 20.2002ZM36.126 19L36.3197 19.0499L36.384 18.8H36.126V19ZM41.8002 36.4001L41.6002 36.4001V36.4001H41.8002ZM41.8004 23.5729L42.0004 23.5729L42.0004 23.2478L41.7103 23.3943L41.8004 23.5729ZM40.4013 23.9551L40.4008 35.8001L40.8008 35.8002L40.8013 23.9551L40.4013 23.9551ZM40.6008 35.6001H14.2006V36.0001H40.6008V35.6001ZM14.4006 35.8001V20.2002H14.0006V35.8001H14.4006ZM14.2006 20.4002H36.0049V20.0002H14.2006V20.4002ZM35.8 20C35.8 20.0704 35.8017 20.1405 35.8052 20.2101L36.2047 20.1904C36.2016 20.1273 36.2 20.0639 36.2 20H35.8ZM35.9323 18.9501C35.8459 19.2859 35.8 19.6377 35.8 20H36.2C36.2 19.6717 36.2416 19.3533 36.3197 19.0499L35.9323 18.9501ZM36.126 18.8H13.5999V19.2H36.126V18.8ZM13.5999 18.8C13.1595 18.8 12.8 19.1595 12.8 19.5999H13.2C13.2 19.3804 13.3804 19.2 13.5999 19.2V18.8ZM12.8 19.5999V36.4001H13.2V19.5999H12.8ZM12.8 36.4001C12.8 36.8405 13.1595 37.2 13.5999 37.2V36.8C13.3804 36.8 13.2 36.6196 13.2 36.4001H12.8ZM13.5999 37.2H41.2003V36.8H13.5999V37.2ZM41.2003 37.2C41.6407 37.2 42.0002 36.8405 42.0002 36.4001H41.6002C41.6002 36.6196 41.4198 36.8 41.2003 36.8V37.2ZM42.0002 36.4001L42.0004 23.5729L41.6004 23.5729L41.6002 36.4001L42.0002 36.4001ZM40.6311 24.1529C41.0778 24.0855 41.5016 23.9478 41.8906 23.7514L41.7103 23.3943C41.3585 23.5719 40.9754 23.6964 40.5714 23.7573L40.6311 24.1529Z" fill="black" mask="url(#path-2-outside-1_4291_39965)"/>
<path d="M16.5526 23.1H36.4474C36.797 23.1 37.1 22.8394 37.1 22.5C37.1 22.1606 36.797 21.9 36.4474 21.9H16.5526C16.203 21.9 15.9 22.1606 15.9 22.5C15.9 22.8394 16.203 23.1 16.5526 23.1Z" fill="black" stroke="black" stroke-width="0.2"/>
<path d="M16.5999 24.9H16.5999C16.2147 24.9 15.9 25.2147 15.9 25.5999C15.9 25.9854 16.2147 26.3001 16.5999 26.3001H38.2004C38.5856 26.3001 38.9003 25.9854 38.9003 25.6002C38.9003 25.215 38.5856 24.9003 38.2004 24.9003L16.5999 24.9Z" fill="black" stroke="black" stroke-width="0.2"/>
<path d="M16.5999 34.0983H23.8001C24.1853 34.0983 24.5 33.7835 24.5 33.3983V30.9984C24.5 30.6132 24.1853 30.2984 23.8001 30.2984H16.5999C16.2147 30.2984 15.9 30.6132 15.9 30.9984V33.3983C15.9 33.7835 16.2147 34.0983 16.5999 34.0983ZM20.8999 31.6983H23.0999V32.6984H20.8999V31.6983ZM17.2999 31.6983H19.4998V32.6984H17.2999V31.6983Z" fill="black" stroke="black" stroke-width="0.2"/>
<path d="M37.5995 31.4995H37.5995L38.7994 31.4998C38.7994 31.4998 38.7994 31.4998 38.7994 31.4998C39.1846 31.4998 39.4993 31.8145 39.4993 32.1997C39.4993 32.5849 39.1846 32.8997 38.7994 32.8997H37.8584L36.2603 34.2675C36.2603 34.2676 36.2603 34.2676 36.2602 34.2676C36.0652 34.4346 35.7929 34.4844 35.554 34.3932C35.3089 34.3021 35.141 34.0847 35.1062 33.8334L35.1062 33.8333L34.871 32.1235L34.0506 34.2514C34.0506 34.2514 34.0506 34.2514 34.0506 34.2515C33.9601 34.4884 33.739 34.662 33.4824 34.6923C33.4496 34.6997 33.4235 34.6997 33.4015 34.6997L33.3992 34.6997C33.1679 34.6997 32.9457 34.5809 32.8134 34.393L32.8118 34.3907L32.8118 34.3906L31.8215 32.8935L29.7994 32.8994L29.7991 32.8994C29.4139 32.8994 29.0992 32.5847 29.0992 32.1995C29.0992 31.8144 29.4138 31.4997 29.7989 31.4995L29.7986 31.4995L29.7991 31.5995V31.4995L37.5995 31.4995ZM37.5995 31.4995C37.4306 31.4995 37.2702 31.5628 37.1455 31.6666L37.1455 31.6666M37.5995 31.4995L37.1455 31.6666M37.1455 31.6666L37.1444 31.6675M37.1455 31.6666L37.1444 31.6675M37.1444 31.6675L36.3178 32.3759M37.1444 31.6675L36.3178 32.3759M36.3178 32.3759L35.8926 29.2461C35.8926 29.2461 35.8926 29.246 35.8926 29.2459L35.8925 29.2458L35.7934 29.2593M36.3178 32.3759L34.6413 29.1212C34.7433 28.8693 34.9954 28.7073 35.2714 28.7433M35.7934 29.2593C35.7575 28.9893 35.5413 28.7734 35.2714 28.7433M35.7934 29.2593L36.2274 32.4534L35.7934 29.2593ZM35.2714 28.7433L35.2843 28.6441C35.284 28.644 35.2837 28.644 35.2834 28.644C35.2831 28.6439 35.2828 28.6439 35.2825 28.6439L35.2714 28.7433ZM33.2377 32.4808L33.1936 32.5951L33.2614 32.6972L33.3055 32.5828L33.2377 32.4808ZM34.8429 31.9186L34.9173 31.7256L34.9454 31.9305L34.8429 31.9186Z" fill="black" stroke="black" stroke-width="0.2"/>
<path d="M40 24C42.2091 24 44 22.2091 44 20C44 17.7909 42.2091 16 40 16C37.7909 16 36 17.7909 36 20C36 22.2091 37.7909 24 40 24Z" stroke="black" stroke-miterlimit="10" stroke-linecap="round" stroke-linejoin="round"/>
<path d="M40 16V21.7143" stroke="black" stroke-miterlimit="10" stroke-linecap="round" stroke-linejoin="round"/>
<path d="M37.7148 19.4277L40.0006 21.7134L42.2863 19.4277" stroke="black" stroke-miterlimit="10" stroke-linecap="round" stroke-linejoin="round"/>
</svg>
