<svg width="54" height="54" viewBox="0 0 54 54" fill="none" xmlns="http://www.w3.org/2000/svg">
<circle cx="27" cy="27" r="27" fill="#FBE0E0"/>
<path d="M39.3678 25.4685C40.3138 25.4685 40.7087 24.2531 39.9403 23.6929L28.2487 15.1883C28.0818 15.0659 27.8802 15 27.6732 15C27.4662 15 27.2646 15.0659 27.0976 15.1883L15.4061 23.6929C14.6377 24.2501 15.0326 25.4685 15.9816 25.4685H17.8766V36.9182H15.6724C15.5377 36.9182 15.4275 37.0284 15.4275 37.1631V38.7551C15.4275 38.8898 15.5377 39 15.6724 39H39.674C39.8087 39 39.9189 38.8898 39.9189 38.7551V37.1631C39.9189 37.0284 39.8087 36.9182 39.674 36.9182H37.4697V25.4685H39.3678ZM27.6732 17.3466L35.9727 23.3837H19.3737L27.6732 17.3466ZM20.0809 25.4685H23.6627V36.9182H20.0809V25.4685ZM25.867 25.4685H29.4488V36.9182H25.867V25.4685ZM35.2655 36.9182H31.653V25.4685H35.2655V36.9182Z" fill="black"/>
</svg>
