<svg width="54" height="54" viewBox="0 0 54 54" fill="none" xmlns="http://www.w3.org/2000/svg">
<circle cx="27" cy="27" r="27" fill="#FBE0E0"/>
<path d="M39.782 17.9806C40.1208 17.9879 40.3932 18.2648 40.3932 18.6054V33.0516C40.3932 33.3969 40.1133 33.6765 39.7683 33.6765H27.6408C22.5452 35.048 19.6577 35.8284 18.0169 36.2719C17.6535 36.3701 17.3513 36.4518 17.0998 36.5197C16.4062 36.707 16.0962 36.7902 15.9532 36.8263C15.8867 36.8432 15.8435 36.8533 15.8127 36.8568C15.7904 36.8593 15.7713 36.859 15.7532 36.8569C15.6628 36.856 15.574 36.841 15.4905 36.8018C15.4032 36.7606 15.3342 36.6988 15.2786 36.6229C15.175 36.4815 15.1097 36.278 15.0468 36.0365C15.0113 35.9002 14.9747 35.7438 14.9326 35.5639C14.8254 35.1057 14.6825 34.4953 14.4312 33.6765H13.4249C13.0799 33.6765 12.8 33.3969 12.8 33.0516V18.6054C12.8 18.2603 13.0798 17.9805 13.4249 17.9805H25.5545L37.2683 14.8219L39.782 17.9806ZM39.782 17.9806L39.782 17.9805H39.7681H38.7686L38.0345 15.2623C38.0345 15.2622 38.0345 15.2622 38.0345 15.2622C37.9448 14.9297 37.6028 14.7313 37.2686 14.8218L39.782 17.9806ZM37.4739 17.9805H30.3547L36.9908 16.191L37.4739 17.9805ZM22.8397 33.6763L16.2026 35.466L15.72 33.6763H22.8397ZM39.1433 32.4266H14.05V19.2301H39.1433V32.4266Z" fill="black" stroke="black" stroke-width="0.4"/>
<path d="M15.9757 24.7545H19.7997C20.1448 24.7545 20.4246 24.4747 20.4246 24.1296V21.1554C20.4246 20.8103 20.1448 20.5305 19.7997 20.5305H15.9757C15.6306 20.5305 15.3508 20.8103 15.3508 21.1554V24.1296C15.3508 24.4747 15.6306 24.7545 15.9757 24.7545ZM16.6006 21.7802H19.1748V23.5047H16.6006V21.7802Z" fill="black" stroke="black" stroke-width="0.4"/>
<path d="M15.9757 28.1513H22.7739C23.1189 28.1513 23.3988 27.8718 23.3988 27.5265C23.3988 27.1811 23.1189 26.9016 22.7739 26.9016H15.9757C15.6306 26.9016 15.3508 27.1811 15.3508 27.5265C15.3508 27.8718 15.6306 28.1513 15.9757 28.1513Z" fill="black" stroke="black" stroke-width="0.4"/>
<path d="M15.9757 30.7021H36.3703C36.7154 30.7021 36.9952 30.4226 36.9952 30.0772C36.9952 29.7319 36.7154 29.4523 36.3703 29.4523H15.9757C15.6306 29.4523 15.3508 29.7319 15.3508 30.0772C15.3508 30.4226 15.6306 30.7021 15.9757 30.7021Z" fill="black" stroke="black" stroke-width="0.4"/>
<path d="M34.2446 26.0291C35.7609 26.0291 36.994 24.7961 36.994 23.2798C36.994 21.7635 35.7609 20.5305 34.2446 20.5305C32.7284 20.5305 31.4953 21.7635 31.4953 23.2798C31.4953 24.7961 32.7284 26.0291 34.2446 26.0291ZM34.2446 21.7802C35.0713 21.7802 35.7442 22.4531 35.7442 23.2798C35.7442 24.1065 35.0713 24.7794 34.2446 24.7794C33.418 24.7794 32.7451 24.1065 32.7451 23.2798C32.7451 22.4531 33.418 21.7802 34.2446 21.7802Z" fill="black" stroke="black" stroke-width="0.4"/>
<path d="M39.768 37.9523H13.4249C13.0799 37.9523 12.8 38.2319 12.8 38.5772C12.8 38.9226 13.0799 39.2021 13.4249 39.2021H39.768C40.113 39.2021 40.3929 38.9226 40.3929 38.5772C40.3929 38.2319 40.113 37.9523 39.768 37.9523Z" fill="black" stroke="black" stroke-width="0.4"/>
</svg>
