<svg width="54" height="54" viewBox="0 0 54 54" fill="none" xmlns="http://www.w3.org/2000/svg">
<circle cx="27" cy="27" r="27" fill="#FBE0E0"/>
<path d="M39 17H15C14.4696 17 13.9609 17.2107 13.5858 17.5858C13.2107 17.9609 13 18.4696 13 19V35C13 35.5304 13.2107 36.0391 13.5858 36.4142C13.9609 36.7893 14.4696 37 15 37H39C39.5304 37 40.0391 36.7893 40.4142 36.4142C40.7893 36.0391 41 35.5304 41 35V19C41 18.4696 40.7893 17.9609 40.4142 17.5858C40.0391 17.2107 39.5304 17 39 17ZM36.8 19L27 25.78L17.2 19H36.8ZM15 35V19.91L26.43 27.82C26.5974 27.9361 26.7963 27.9984 27 27.9984C27.2037 27.9984 27.4026 27.9361 27.57 27.82L39 19.91V35H15Z" fill="black"/>
</svg>
