<svg width="54" height="54" viewBox="0 0 54 54" fill="none" xmlns="http://www.w3.org/2000/svg">
<circle cx="27" cy="27" r="27" fill="#FBE0E0"/>
<path d="M21.8571 29.7143C22.3118 29.7143 22.7478 29.5337 23.0693 29.2122C23.3908 28.8907 23.5714 28.4547 23.5714 28C23.5714 27.5453 23.3908 27.1093 23.0693 26.7878C22.7478 26.4663 22.3118 26.2857 21.8571 26.2857C21.4025 26.2857 20.9665 26.4663 20.645 26.7878C20.3235 27.1093 20.1429 27.5453 20.1429 28C20.1429 28.4547 20.3235 28.8907 20.645 29.2122C20.9665 29.5337 21.4025 29.7143 21.8571 29.7143ZM27 29.7143C27.4547 29.7143 27.8907 29.5337 28.2122 29.2122C28.5337 28.8907 28.7143 28.4547 28.7143 28C28.7143 27.5453 28.5337 27.1093 28.2122 26.7878C27.8907 26.4663 27.4547 26.2857 27 26.2857C26.5453 26.2857 26.1093 26.4663 25.7878 26.7878C25.4663 27.1093 25.2857 27.5453 25.2857 28C25.2857 28.4547 25.4663 28.8907 25.7878 29.2122C26.1093 29.5337 26.5453 29.7143 27 29.7143ZM33.8571 28C33.8571 28.4547 33.6765 28.8907 33.355 29.2122C33.0335 29.5337 32.5975 29.7143 32.1429 29.7143C31.6882 29.7143 31.2522 29.5337 30.9307 29.2122C30.6092 28.8907 30.4286 28.4547 30.4286 28C30.4286 27.5453 30.6092 27.1093 30.9307 26.7878C31.2522 26.4663 31.6882 26.2857 32.1429 26.2857C32.5975 26.2857 33.0335 26.4663 33.355 26.7878C33.6765 27.1093 33.8571 27.5453 33.8571 28ZM39 28C39 34.6274 33.6274 40 27 40C20.3726 40 15 34.6274 15 28C15 21.3726 20.3726 16 27 16C33.6274 16 39 21.3726 39 28ZM37.2857 28C37.2857 22.3197 32.6803 17.7143 27 17.7143C21.3197 17.7143 16.7143 22.3197 16.7143 28C16.7143 33.6803 21.3197 38.2857 27 38.2857C32.6803 38.2857 37.2857 33.6803 37.2857 28Z" fill="black"/>
</svg>
