<svg width="54" height="54" viewBox="0 0 54 54" fill="none" xmlns="http://www.w3.org/2000/svg">
<circle cx="27" cy="27" r="27" fill="#FBE0E0"/>
<path d="M37.9517 32.9686V36.5816C37.9531 36.917 37.8844 37.249 37.75 37.5563C37.6156 37.8636 37.4186 38.1395 37.1714 38.3662C36.9242 38.593 36.6325 38.7656 36.3147 38.873C35.997 38.9805 35.6603 39.0204 35.3263 38.9902C31.6204 38.5875 28.0606 37.3212 24.933 35.293C22.0231 33.4439 19.5561 30.9769 17.707 28.067C15.6717 24.9252 14.4051 21.3481 14.0098 17.6255C13.9797 17.2925 14.0193 16.9569 14.126 16.64C14.2327 16.3231 14.4043 16.0318 14.6297 15.7849C14.8552 15.5379 15.1296 15.3406 15.4354 15.2055C15.7413 15.0704 16.072 15.0004 16.4064 15.0001H20.0193C20.6038 14.9944 21.1704 15.2013 21.6136 15.5824C22.0567 15.9636 22.3462 16.4928 22.428 17.0716C22.5805 18.2278 22.8633 19.363 23.271 20.4557C23.433 20.8868 23.4681 21.3552 23.3721 21.8056C23.276 22.256 23.0529 22.6694 22.7291 22.9968L21.1996 24.5263C22.914 27.5414 25.4104 30.0378 28.4255 31.7522L29.955 30.2228C30.2824 29.899 30.6958 29.6758 31.1462 29.5798C31.5966 29.4837 32.0651 29.5188 32.4961 29.6808C33.5888 30.0885 34.724 30.3713 35.8803 30.5238C36.4653 30.6064 36.9996 30.901 37.3815 31.3518C37.7634 31.8026 37.9664 32.378 37.9517 32.9686Z" stroke="black" stroke-width="2" stroke-linecap="round" stroke-linejoin="round"/>
</svg>
