<svg width="54" height="54" viewBox="0 0 54 54" fill="none" xmlns="http://www.w3.org/2000/svg">
<circle cx="27" cy="27" r="27" fill="#FBE0E0"/>
<path d="M19.9052 36.5178L25.9616 34.0228C26.1133 33.9201 26.265 33.8173 26.3677 33.7195L36.3427 21.5577C36.6461 21.0978 36.5971 20.4912 36.1911 20.134L31.4555 16.2154C31.0641 15.9268 30.4624 15.8828 30.0808 16.3671L20.0568 28.524C19.9541 28.6757 19.9052 28.8274 19.8514 28.9839L18.5794 35.4464C18.5158 36.552 19.4013 36.7428 19.9052 36.5178ZM30.9467 18.3973L34.1511 21.044L25.4578 31.6648L22.2828 29.0377L30.9467 18.3973ZM21.4951 31.0141L23.6672 32.8144L20.8689 33.969L21.4951 31.0141Z" fill="black"/>
<path d="M37.9166 37.9418H20.8187C20.8187 37.9418 17.2719 38.1081 17.1398 37.1982C17.1398 37.1493 17.0517 36.9242 17.5116 36.3665C17.8687 35.9067 17.8149 35.3 17.4088 34.9429C16.949 34.5858 16.3424 34.6396 15.9852 35.0456C15.0166 36.2149 14.7622 37.2324 15.2221 38.1521C16.4695 40.4759 20.667 39.928 20.8676 39.9769H37.9166C38.4743 39.9769 38.9342 39.517 38.9342 38.9593C38.9391 38.3967 38.4792 37.9418 37.9166 37.9418Z" fill="black"/>
</svg>
