<svg width="54" height="54" viewBox="0 0 54 54" fill="none" xmlns="http://www.w3.org/2000/svg">
<circle cx="27" cy="27" r="27" fill="#FBE0E0"/>
<path d="M33.5 40H20.375V41H33.5V40Z" fill="black" stroke="black" stroke-width="0.2"/>
<path d="M33.5 13H20.375V14H33.5V13Z" fill="black" stroke="black" stroke-width="0.2"/>
<path d="M33.5 31H23.6562V32H33.5V31Z" fill="black" stroke="black" stroke-width="0.2"/>
<path d="M22.5625 31H20.375V32H22.5625V31Z" fill="black" stroke="black" stroke-width="0.2"/>
<path d="M33.5 34H23.6562V35H33.5V34Z" fill="black" stroke="black" stroke-width="0.2"/>
<path d="M22.5625 34H20.375V35H22.5625V34Z" fill="black" stroke="black" stroke-width="0.2"/>
<path d="M36.7812 17V37H37.875V17H36.7812Z" fill="black" stroke="black" stroke-width="0.2"/>
<path d="M33.5 13V14H35.6875C35.9776 14 36.2558 14.1054 36.4609 14.2929C36.666 14.4804 36.7812 14.7348 36.7812 15V17H37.875V15C37.875 14.4696 37.6445 13.9609 37.2343 13.5858C36.8241 13.2107 36.2677 13 35.6875 13H33.5Z" fill="black" stroke="black" stroke-width="0.2"/>
<path d="M16 17V37H17.0938V17H16Z" fill="black" stroke="black" stroke-width="0.2"/>
<path d="M20.375 13V14H18.1875C17.8974 14 17.6192 14.1054 17.4141 14.2929C17.209 14.4804 17.0938 14.7348 17.0938 15V17H16V15C16 14.4696 16.2305 13.9609 16.6407 13.5858C17.0509 13.2107 17.6073 13 18.1875 13H20.375Z" fill="black" stroke="black" stroke-width="0.2"/>
<path d="M33.5 41V40H35.6875C35.9776 40 36.2558 39.8946 36.4609 39.7071C36.666 39.5196 36.7812 39.2652 36.7812 39V37H37.875V39C37.875 39.5304 37.6445 40.0391 37.2343 40.4142C36.8241 40.7893 36.2677 41 35.6875 41H33.5Z" fill="black" stroke="black" stroke-width="0.2"/>
<path d="M20.375 41V40H18.1875C17.8974 40 17.6192 39.8946 17.4141 39.7071C17.209 39.5196 17.0938 39.2652 17.0938 39V37H16V39C16 39.5304 16.2305 40.0391 16.6407 40.4142C17.0509 40.7893 17.6073 41 18.1875 41H20.375Z" fill="black" stroke="black" stroke-width="0.2"/>
<path d="M32.0461 26.2C31.6506 25.2546 30.9505 24.4412 30.0385 23.8674C29.1264 23.2935 28.0454 22.9863 26.9383 22.9863C25.8312 22.9863 24.7501 23.2935 23.8381 23.8674C22.9261 24.4412 22.226 25.2546 21.8305 26.2C21.6822 26.5505 21.583 26.9167 21.5352 27.29C21.8595 27.527 22.2032 27.741 22.5633 27.93C22.569 27.567 22.6317 27.2067 22.7492 26.86C23.0204 26.037 23.5742 25.3158 24.3287 24.8032C25.0832 24.2905 25.9982 24.0137 26.9383 24.0137C27.8783 24.0137 28.7934 24.2905 29.5479 24.8032C30.3024 25.3158 30.8562 26.037 31.1273 26.86C31.2449 27.2067 31.3075 27.567 31.3133 27.93C31.6734 27.741 32.0171 27.527 32.3414 27.29C32.2936 26.9167 32.1944 26.5505 32.0461 26.2Z" fill="black" stroke="black" stroke-width="0.2"/>
<path d="M26.9375 19C26.5049 19 26.0819 19.1173 25.7222 19.3371C25.3625 19.5568 25.0821 19.8692 24.9165 20.2346C24.7509 20.6001 24.7076 21.0022 24.792 21.3902C24.8764 21.7781 25.0848 22.1345 25.3907 22.4142C25.6966 22.6939 26.0864 22.8844 26.5107 22.9616C26.9351 23.0387 27.3749 22.9991 27.7746 22.8478C28.1743 22.6964 28.516 22.44 28.7563 22.1111C28.9967 21.7822 29.125 21.3956 29.125 21C29.125 20.4696 28.8945 19.9609 28.4843 19.5858C28.0741 19.2107 27.5177 19 26.9375 19ZM26.9375 22C26.7212 22 26.5097 21.9414 26.3298 21.8315C26.15 21.7216 26.0098 21.5654 25.927 21.3827C25.8442 21.2 25.8226 20.9989 25.8648 20.8049C25.907 20.6109 26.0111 20.4327 26.1641 20.2929C26.3171 20.153 26.512 20.0578 26.7241 20.0192C26.9363 19.9806 27.1562 20.0004 27.3561 20.0761C27.5559 20.1518 27.7267 20.28 27.8469 20.4444C27.9671 20.6089 28.0313 20.8022 28.0313 21C28.0313 21.2652 27.916 21.5196 27.7109 21.7071C27.5058 21.8946 27.2276 22 26.9375 22Z" fill="black" stroke="black" stroke-width="0.2"/>
<path d="M32.0461 26.2C31.6506 25.2546 30.9505 24.4412 30.0385 23.8674C29.1264 23.2935 28.0454 22.9863 26.9383 22.9863C25.8312 22.9863 24.7501 23.2935 23.8381 23.8674C22.9261 24.4412 22.226 25.2546 21.8305 26.2C21.6822 26.5505 21.583 26.9167 21.5352 27.29C21.8595 27.527 22.2032 27.741 22.5633 27.93C23.8934 28.6321 25.4023 29.0018 26.9383 29.0018C28.4742 29.0018 29.9831 28.6321 31.3133 27.93C31.6734 27.741 32.0171 27.527 32.3414 27.29C32.2936 26.9167 32.1944 26.5505 32.0461 26.2ZM26.9383 28C25.4504 28.0002 23.9948 27.604 22.7492 26.86C23.0204 26.037 23.5742 25.3158 24.3287 24.8032C25.0832 24.2905 25.9982 24.0137 26.9383 24.0137C27.8783 24.0137 28.7934 24.2905 29.5479 24.8032C30.3024 25.3158 30.8562 26.037 31.1273 26.86C29.8818 27.604 28.4261 28.0002 26.9383 28Z" fill="black" stroke="black" stroke-width="0.2"/>
<path d="M32.0438 26.2C31.7596 26.4445 31.4521 26.6654 31.125 26.86C30.8539 26.037 30.3 25.3158 29.5455 24.8032C28.791 24.2905 27.876 24.0137 26.9359 24.0137C25.9959 24.0137 25.0809 24.2905 24.3264 24.8032C23.5719 25.3158 23.018 26.037 22.7469 26.86C22.4198 26.6654 22.1123 26.4445 21.8281 26.2C22.2237 25.2546 22.9237 24.4412 23.8358 23.8674C24.7478 23.2935 25.8288 22.9863 26.9359 22.9863C28.043 22.9863 29.1241 23.2935 30.0361 23.8674C30.9481 24.4412 31.6482 25.2546 32.0438 26.2Z" fill="black" stroke="black" stroke-width="0.2"/>
</svg>
