<svg width="20" height="20" viewBox="0 0 20 20" fill="none" xmlns="http://www.w3.org/2000/svg">
<path d="M6.13244 5.14244C6.6105 5.57189 7.13717 5.27614 7.30328 5.10193L9.24792 3.01144V15.052C9.24792 15.5098 9.61659 15.8785 10.0744 15.8785C10.5322 15.8785 10.9009 15.5098 10.9009 15.052V3.00739L12.8455 5.09788C13.1575 5.43414 13.6801 5.45035 14.0163 5.13839C14.3526 4.82644 14.3688 4.30382 14.0569 3.96756L10.678 0.337556C10.52 0.171451 10.3013 0.0742188 10.0744 0.0742188C9.84347 0.0742188 9.6247 0.171451 9.47075 0.337556L6.09193 3.96756C5.77998 4.30787 5.79213 4.83859 6.13244 5.14244Z" fill="#CAC2C3"/>
<path d="M19.1735 13.2031C18.7157 13.2031 18.3471 13.5718 18.3471 14.0296V18.2754H1.80138V14.0296C1.80138 13.5718 1.43271 13.2031 0.974911 13.2031C0.517109 13.2031 0.148438 13.5718 0.148438 14.0296V19.1019C0.148438 19.5597 0.517109 19.9283 0.974911 19.9283H19.1735C19.6313 19.9283 20 19.5597 20 19.1019V14.0296C20 13.5718 19.6313 13.2031 19.1735 13.2031Z" fill="#CAC2C3"/>
</svg>
