<svg width="63" height="63" viewBox="0 0 63 63" fill="none" xmlns="http://www.w3.org/2000/svg">
<g filter="url(#filter0_d_227_7747)">
<circle cx="29.5" cy="26.5" r="21.5" fill="white"/>
<circle cx="29.5" cy="26.5" r="21" stroke="#FCF7F7"/>
</g>
<g clip-path="url(#clip0_227_7747)">
<path d="M25.6437 36.4292C25.0849 35.955 24.7989 35.2799 24.7989 34.5993C24.7989 34.0519 24.9859 33.4997 25.3679 33.0482L29.6561 27.9997L25.3685 22.9513C24.5111 21.9422 24.634 20.4282 25.6437 19.5702C26.6546 18.7128 28.1667 18.8364 29.0253 19.8461L34.632 26.4474C35.3929 27.3426 35.3929 28.6575 34.632 29.5521L29.0253 36.154C28.1667 37.1637 26.654 37.2866 25.6437 36.4292Z" fill="black"/>
</g>
<defs>
<filter id="filter0_d_227_7747" x="0" y="0" width="63" height="63" filterUnits="userSpaceOnUse" color-interpolation-filters="sRGB">
<feFlood flood-opacity="0" result="BackgroundImageFix"/>
<feColorMatrix in="SourceAlpha" type="matrix" values="0 0 0 0 0 0 0 0 0 0 0 0 0 0 0 0 0 0 127 0" result="hardAlpha"/>
<feOffset dx="2" dy="5"/>
<feGaussianBlur stdDeviation="5"/>
<feColorMatrix type="matrix" values="0 0 0 0 0.909804 0 0 0 0 0.313726 0 0 0 0 0.313726 0 0 0 0.2 0"/>
<feBlend mode="normal" in2="BackgroundImageFix" result="effect1_dropShadow_227_7747"/>
<feBlend mode="normal" in="SourceGraphic" in2="effect1_dropShadow_227_7747" result="shape"/>
</filter>
<clipPath id="clip0_227_7747">
<rect width="18" height="18" fill="white" transform="translate(39 19) rotate(90)"/>
</clipPath>
</defs>
</svg>
